<svg width="29" height="26" viewBox="0 0 29 26" fill="none" xmlns="http://www.w3.org/2000/svg">
<g clip-path="url(#clip0_187_97)">
<path d="M0.313477 0.902451V23.1855C0.313477 24.2363 1.1727 25.0957 2.22272 25.0957H26.4042C27.4542 25.0957 28.3135 24.2363 28.3135 23.1855V0.902451H0.313477ZM9.85895 4.72229C9.85895 4.01871 10.4285 3.44884 11.1318 3.44884H17.4954C18.1984 3.44884 18.7683 4.01871 18.7683 4.72229C18.7683 5.42561 18.1984 5.99549 17.4954 5.99549H11.1318C10.4285 5.99549 9.85895 5.42561 9.85895 4.72229Z" fill="#EEEEEE"/>
<path opacity="0.0500031" fill-rule="evenodd" clip-rule="evenodd" d="M28.3135 0.902344H0.313477V12.9991H28.3135V0.902344ZM11.1315 3.44899C10.4283 3.44899 9.85869 4.01886 9.85869 4.72244C9.85869 5.42576 10.4283 5.99563 11.1315 5.99563H17.4952C18.1982 5.99563 18.768 5.42576 18.768 4.72244C18.768 4.01886 18.1982 3.44899 17.4952 3.44899H11.1315Z" fill="#212121"/>
<path opacity="0.100006" d="M26.4042 24.9366H2.22247C1.1727 24.9366 0.313477 24.0769 0.313477 23.0264V23.1855C0.313477 24.2363 1.1727 25.0957 2.22247 25.0957H26.4042C27.4543 25.0957 28.3135 24.2363 28.3135 23.1855V23.0264C28.3135 24.0769 27.4543 24.9366 26.4042 24.9366ZM11.1315 3.44884H17.4952C18.1712 3.44884 18.7235 3.97728 18.7632 4.64273C18.7647 4.61579 18.768 4.59011 18.768 4.56317C18.768 3.8596 18.1984 3.28972 17.4952 3.28972H11.1315C10.4285 3.28972 9.8587 3.8596 9.8587 4.56317C9.8587 4.59011 9.86047 4.61579 9.86378 4.64273C9.90341 3.97728 10.4555 3.44884 11.1315 3.44884Z" fill="#231F20"/>
<path opacity="0.2" d="M0.313477 1.06146H28.3135V0.902344H0.313477V1.06146ZM17.4952 5.99563H11.1315C10.4555 5.99563 9.90341 5.46744 9.86352 4.802C9.86047 4.8292 9.85869 4.85461 9.85869 4.88156C9.85869 5.58513 10.4283 6.15501 11.1315 6.15501H17.4952C18.1984 6.15501 18.768 5.58513 18.768 4.88156C18.768 4.85461 18.7662 4.8292 18.7632 4.802C18.7233 5.46744 18.1712 5.99563 17.4952 5.99563Z" fill="white"/>
<path opacity="0.0200043" d="M0.313477 12.8409H28.3135V13H0.313477V12.8409Z" fill="#212121"/>
<path opacity="0.05" d="M0.313477 13H28.3135V13.1591H0.313477V13Z" fill="white"/>
<path d="M0.313477 0.902451V23.1855C0.313477 24.2363 1.1727 25.0957 2.22272 25.0957H26.4042C27.4542 25.0957 28.3135 24.2363 28.3135 23.1855V0.902451H0.313477ZM9.85895 4.72229C9.85895 4.01871 10.4285 3.44884 11.1318 3.44884H17.4954C18.1984 3.44884 18.7683 4.01871 18.7683 4.72229C18.7683 5.42561 18.1984 5.99549 17.4954 5.99549H11.1318C10.4285 5.99549 9.85895 5.42561 9.85895 4.72229Z" fill="url(#paint0_radial_187_97)"/>
<mask id="mask0_187_97" style="mask-type:alpha" maskUnits="userSpaceOnUse" x="2" y="11" width="25" height="25">
<path d="M2.22266 23.1867C2.22266 16.5058 7.63596 11.0898 14.3136 11.0898C20.9912 11.0898 26.4045 16.5058 26.4045 23.1867C26.4045 29.8675 20.9912 35.2835 14.3136 35.2835C7.63596 35.2835 2.22266 29.8675 2.22266 23.1867Z" fill="#F1F1F1"/>
</mask>
<g mask="url(#mask0_187_97)">
<path d="M4.14258 11.0901V25.9355H9.55326L14.3133 17.6876H26.4042V11.0901H4.14258ZM4.14258 11.0901V25.9355H9.55326L14.3133 17.6876H26.4042V11.0901H4.14258Z" fill="#DB4437"/>
<path d="M2.22266 35.2832H13.7312L19.0736 29.9383V25.9367L9.5535 25.9352L2.22266 13.356V35.2832ZM2.22266 35.2832H13.7312L19.0736 29.9383V25.9367L9.5535 25.9352L2.22266 13.356V35.2832Z" fill="#0F9D58"/>
<path d="M14.3132 17.687L19.0732 25.9349L13.7324 35.2832H26.4041V17.687H14.3132ZM14.3132 17.687L19.0732 25.9349L13.7324 35.2832H26.4041V17.687H14.3132Z" fill="#FFCD40"/>
<path d="M14.313 17.6869C17.3487 17.6869 19.8095 20.1491 19.8095 23.1861C19.8095 26.2233 17.3487 28.6855 14.313 28.6855C11.2772 28.6855 8.81641 26.2233 8.81641 23.1861C8.81641 20.1491 11.2772 17.6869 14.313 17.6869Z" fill="white"/>
<path d="M14.3133 18.7872C16.7418 18.7872 18.7105 20.7568 18.7105 23.1866C18.7105 25.6163 16.7418 27.5859 14.3133 27.5859C11.8847 27.5859 9.91602 25.6163 9.91602 23.1866C9.91602 20.7568 11.8847 18.7872 14.3133 18.7872Z" fill="#4285F4"/>
</g>
</g>
<defs>
<radialGradient id="paint0_radial_187_97" cx="0" cy="0" r="1" gradientUnits="userSpaceOnUse" gradientTransform="translate(0.234435 0.797841) scale(36.2083 36.2259)">
<stop stop-color="#18181B" stop-opacity="0.41"/>
<stop offset="1" stop-color="#18181B" stop-opacity="0"/>
</radialGradient>
<clipPath id="clip0_187_97">
<rect width="28" height="24.1935" fill="white" transform="translate(0.313477 0.902344)"/>
</clipPath>
</defs>
</svg>
